<mxfile host="app.diagrams.net" modified="2024-05-23T18:34:52.247Z" agent="Mozilla/5.0 (Windows NT 10.0; Win64; x64; rv:126.0) Gecko/20100101 Firefox/126.0" etag="X5xtkhDM_phIISnAFuHa" version="24.4.6" type="device">
  <diagram name="Side-1" id="HjIHgDulI7v-FXPZ6Cw7">
    <mxGraphModel dx="420" dy="212" grid="1" gridSize="10" guides="1" tooltips="1" connect="1" arrows="1" fold="1" page="1" pageScale="1" pageWidth="827" pageHeight="1169" math="0" shadow="0">
      <root>
        <mxCell id="0" />
        <mxCell id="1" parent="0" />
        <mxCell id="YevJJa76YJFmdZqK_6RJ-1" value="" style="whiteSpace=wrap;html=1;aspect=fixed;" vertex="1" parent="1">
          <mxGeometry x="100" y="20" width="100" height="100" as="geometry" />
        </mxCell>
        <mxCell id="YevJJa76YJFmdZqK_6RJ-2" value="a&lt;sub&gt;1&lt;/sub&gt;" style="endArrow=classic;html=1;rounded=0;fontFamily=Times New Roman;labelPosition=center;verticalLabelPosition=middle;align=center;verticalAlign=middle;spacingBottom=2;" edge="1" parent="1">
          <mxGeometry x="-1" y="-10" width="50" height="50" relative="1" as="geometry">
            <mxPoint x="40" y="30" as="sourcePoint" />
            <mxPoint x="100" y="30" as="targetPoint" />
            <mxPoint x="-10" y="-10" as="offset" />
          </mxGeometry>
        </mxCell>
        <mxCell id="YevJJa76YJFmdZqK_6RJ-3" value="b&lt;sub&gt;1&lt;/sub&gt;" style="endArrow=none;html=1;rounded=0;startArrow=classic;startFill=1;endFill=0;fontFamily=Times New Roman;spacingBottom=2;" edge="1" parent="1">
          <mxGeometry x="-1" y="-10" width="50" height="50" relative="1" as="geometry">
            <mxPoint x="40" y="110" as="sourcePoint" />
            <mxPoint x="100" y="110" as="targetPoint" />
            <mxPoint x="-10" y="-10" as="offset" />
          </mxGeometry>
        </mxCell>
        <mxCell id="YevJJa76YJFmdZqK_6RJ-4" value="" style="endArrow=none;html=1;rounded=0;" edge="1" parent="1">
          <mxGeometry width="50" height="50" relative="1" as="geometry">
            <mxPoint x="30" y="50" as="sourcePoint" />
            <mxPoint x="100" y="50" as="targetPoint" />
          </mxGeometry>
        </mxCell>
        <mxCell id="YevJJa76YJFmdZqK_6RJ-5" value="" style="endArrow=none;html=1;rounded=0;" edge="1" parent="1">
          <mxGeometry width="50" height="50" relative="1" as="geometry">
            <mxPoint x="30" y="90" as="sourcePoint" />
            <mxPoint x="100" y="90" as="targetPoint" />
          </mxGeometry>
        </mxCell>
        <mxCell id="YevJJa76YJFmdZqK_6RJ-6" value="Port 1" style="text;html=1;align=center;verticalAlign=middle;whiteSpace=wrap;rounded=0;fontFamily=Times New Roman;" vertex="1" parent="1">
          <mxGeometry x="90" y="55" width="60" height="30" as="geometry" />
        </mxCell>
        <mxCell id="YevJJa76YJFmdZqK_6RJ-8" value="-" style="text;html=1;align=center;verticalAlign=middle;whiteSpace=wrap;rounded=0;spacingBottom=2;fontFamily=Times New Roman;" vertex="1" parent="1">
          <mxGeometry x="10" y="80" width="30" height="20" as="geometry" />
        </mxCell>
        <mxCell id="YevJJa76YJFmdZqK_6RJ-9" value="+" style="text;html=1;align=center;verticalAlign=middle;whiteSpace=wrap;rounded=0;spacingBottom=2;fontFamily=Times New Roman;" vertex="1" parent="1">
          <mxGeometry x="10" y="40" width="30" height="20" as="geometry" />
        </mxCell>
        <mxCell id="YevJJa76YJFmdZqK_6RJ-10" value="&lt;font face=&quot;Times New Roman&quot;&gt;SYSTEM&lt;/font&gt;" style="text;html=1;align=center;verticalAlign=middle;whiteSpace=wrap;rounded=0;" vertex="1" parent="1">
          <mxGeometry x="120" y="20" width="60" height="20" as="geometry" />
        </mxCell>
      </root>
    </mxGraphModel>
  </diagram>
</mxfile>
